<svg width="549" height="565" viewBox="0 0 549 565" fill="none" xmlns="http://www.w3.org/2000/svg">
<g clip-path="url(#clip0_46_1343)">
<path d="M-26.9501 9.74003C-26.9501 9.74003 113.77 -42.35 164.24 100.78C183.37 155.03 174.64 206.54 237.58 214.46C354.42 229.18 416.56 131.99 547.92 255.55" stroke="url(#paint0_linear_46_1343)" stroke-miterlimit="10"/>
<path d="M-28.9401 15.63C-28.9401 15.63 110.45 -35.43 160.9 105.72C178.78 155.6 172.85 203.17 222.19 215.94C225.81 216.88 229.73 217.64 233.97 218.19C349.56 233.44 411.67 139.07 540.88 260.6" stroke="url(#paint1_linear_46_1343)" stroke-miterlimit="10"/>
<path d="M-30.92 21.5101C-30.92 21.5101 107.13 -28.5199 157.57 110.65C175.51 159.86 170 206.83 218.73 219.63C222.31 220.58 226.18 221.35 230.38 221.92C344.72 237.71 406.8 146.15 533.86 265.66" stroke="url(#paint2_linear_46_1343)" stroke-miterlimit="10"/>
<path d="M-32.9 27.4C-32.9 27.4 103.81 -21.6 154.24 115.59C172.24 164.13 167.16 210.51 215.26 223.33C218.8 224.29 222.63 225.07 226.77 225.65C339.86 241.98 401.91 153.23 526.81 270.71" stroke="url(#paint3_linear_46_1343)" stroke-miterlimit="10"/>
<path d="M-34.89 33.28C-34.89 33.28 100.49 -14.7 150.89 120.52C168.95 168.39 164.32 214.05 211.77 227.02C215.27 227.98 219.05 228.78 223.15 229.38C334.98 246.24 397.01 160.31 519.76 275.76" stroke="url(#paint4_linear_46_1343)" stroke-miterlimit="10"/>
<path d="M-36.87 39.17C-36.87 39.17 96.85 -7.64995 147.56 125.47C165.56 172.71 161.49 217.71 208.31 230.73C211.77 231.69 215.51 232.5 219.56 233.13C330.18 250.28 392.15 167.4 512.74 280.83" stroke="url(#paint5_linear_46_1343)" stroke-miterlimit="10"/>
<path d="M-38.85 45.05C-38.85 45.05 93.47 -0.720001 144.23 130.4C162.27 176.98 158.65 221.35 204.84 234.42C208.26 235.39 211.96 236.21 215.95 236.85C325.33 254.49 387.26 174.47 505.7 285.88" stroke="url(#paint6_linear_46_1343)" stroke-miterlimit="10"/>
<path d="M-40.8301 50.94C-40.8301 50.94 90.0899 6.23001 140.9 135.34C158.97 181.26 155.81 224.99 201.38 238.12C204.76 239.1 208.41 239.92 212.36 240.59C320.49 258.72 382.39 181.56 498.68 290.94" stroke="url(#paint7_linear_46_1343)" stroke-miterlimit="10"/>
<path d="M-42.8201 56.82C-42.8201 56.82 86.6999 13.16 137.56 140.27C155.67 185.53 152.96 228.63 197.9 241.81C201.25 242.79 204.85 243.63 208.74 244.31C315.63 262.93 377.49 188.63 491.63 295.98" stroke="url(#paint8_linear_46_1343)" stroke-miterlimit="10"/>
<path d="M-44.8 62.71C-44.8 62.71 83.33 20.11 134.22 145.21C152.37 189.81 150.12 232.28 194.42 245.51C197.73 246.5 201.28 247.35 205.13 248.05C310.78 267.17 372.61 195.72 484.59 301.05" stroke="url(#paint9_linear_46_1343)" stroke-miterlimit="10"/>
<path d="M-46.78 68.59C-46.78 68.59 79.96 27.05 130.89 150.14C149.07 194.09 147.28 235.92 190.96 249.2C194.23 250.19 197.74 251.06 201.54 251.77C305.95 271.38 367.74 202.79 477.56 306.09" stroke="url(#paint10_linear_46_1343)" stroke-miterlimit="10"/>
<path d="M-48.77 74.4801C-48.77 74.4801 76.58 33.9901 127.55 155.08C145.77 198.37 144.43 239.57 187.48 252.9C190.71 253.9 194.18 254.78 197.92 255.51C301.09 275.61 362.84 209.87 470.51 311.15" stroke="url(#paint11_linear_46_1343)" stroke-miterlimit="10"/>
<path d="M-50.75 80.36C-50.75 80.36 73.2 40.93 124.22 160.01C142.48 202.64 141.6 243.21 184.02 256.59C187.21 257.6 190.63 258.49 194.33 259.23C296.26 279.83 357.97 216.94 463.49 316.19" stroke="url(#paint12_linear_46_1343)" stroke-miterlimit="10"/>
<path d="M-52.73 86.25C-52.73 86.25 69.84 47.88 120.89 164.95C139.19 206.92 138.76 246.86 180.55 260.29C183.7 261.3 187.08 262.2 190.72 262.97C291.41 284.06 353.08 224.03 456.45 321.26" stroke="url(#paint13_linear_46_1343)" stroke-miterlimit="10"/>
<path d="M-54.7101 92.1301C-54.7101 92.1301 66.4699 54.8101 117.56 169.88C135.9 211.19 135.92 250.51 177.08 263.98C180.19 265 183.52 265.91 187.12 266.69C286.57 288.28 348.21 231.1 449.42 326.3" stroke="url(#paint14_linear_46_1343)" stroke-miterlimit="10"/>
<path d="M-56.7001 98.02C-56.7001 98.02 63.0899 61.76 114.21 174.82C132.59 215.47 133.06 254.16 173.6 267.68C176.67 268.7 179.96 269.63 183.51 270.43C281.72 292.52 343.32 238.19 442.38 331.36" stroke="url(#paint15_linear_46_1343)" stroke-miterlimit="10"/>
<path d="M-58.6801 103.9C-58.6801 103.9 59.7299 68.7001 110.88 179.75C129.3 219.74 130.23 257.8 170.13 271.37C173.16 272.4 176.41 273.34 179.9 274.15C276.87 296.74 338.43 245.26 435.34 336.41" stroke="url(#paint16_linear_46_1343)" stroke-miterlimit="10"/>
<path d="M-60.66 109.78C-60.66 109.78 56.37 75.64 107.55 184.68C126.01 224.01 127.39 261.45 166.67 275.06C169.66 276.1 172.86 277.05 176.31 277.88C272.04 300.97 333.56 252.34 428.32 341.46" stroke="url(#paint17_linear_46_1343)" stroke-miterlimit="10"/>
<path d="M-62.65 115.67C-62.65 115.67 53 82.59 104.21 189.62C122.71 228.3 124.54 265.11 163.19 278.76C166.14 279.8 169.3 280.77 172.69 281.62C267.18 305.21 328.66 259.42 421.26 346.52" stroke="url(#paint18_linear_46_1343)" stroke-miterlimit="10"/>
<path d="M-64.63 121.55C-64.63 121.55 49.64 89.5201 100.88 194.55C119.43 232.57 121.71 268.75 159.72 282.45C162.64 283.5 165.74 284.48 169.09 285.34C262.35 309.43 323.79 266.49 414.23 351.57" stroke="url(#paint19_linear_46_1343)" stroke-miterlimit="10"/>
<path d="M-66.61 127.44C-66.61 127.44 46.28 96.47 97.54 199.49C116.13 236.85 118.86 272.41 156.25 286.15C159.13 287.21 162.19 288.19 165.49 289.08C257.51 313.68 318.91 273.58 407.2 356.63" stroke="url(#paint20_linear_46_1343)" stroke-miterlimit="10"/>
<path d="M-68.5901 133.32C-68.5901 133.32 42.9299 103.41 94.2099 204.42C112.84 241.12 116.03 276.06 152.78 289.84C155.62 290.9 158.64 291.9 161.88 292.8C252.66 317.91 314.02 280.65 400.16 361.67" stroke="url(#paint21_linear_46_1343)" stroke-miterlimit="10"/>
<path d="M-70.5801 139.21C-70.5801 139.21 39.5699 110.36 90.8699 209.36C109.55 245.4 113.18 279.72 149.31 293.54C152.11 294.61 155.08 295.62 158.28 296.54C247.83 322.15 309.14 287.74 393.13 366.73" stroke="url(#paint22_linear_46_1343)" stroke-miterlimit="10"/>
<path d="M-72.5601 145.09C-72.5601 145.09 36.2199 117.3 87.5399 214.29C106.27 249.68 110.34 283.37 145.84 297.23C148.6 298.31 151.53 299.33 154.67 300.26C242.98 326.38 304.26 294.81 386.09 371.78" stroke="url(#paint23_linear_46_1343)" stroke-miterlimit="10"/>
<path d="M-74.54 150.98C-74.54 150.98 32.87 124.25 84.21 219.23C102.98 253.96 107.51 287.03 142.37 300.93C145.09 302.01 147.98 303.05 151.07 304C238.15 330.63 299.38 301.89 379.06 376.84" stroke="url(#paint24_linear_46_1343)" stroke-miterlimit="10"/>
<path d="M-76.53 156.86C-76.53 156.86 29.51 131.19 80.87 224.16C99.69 258.23 104.66 290.68 138.9 304.62C141.58 305.71 144.42 306.76 147.47 307.72C233.31 334.87 294.5 308.96 372.02 381.88" stroke="url(#paint25_linear_46_1343)" stroke-miterlimit="10"/>
<path d="M-78.51 162.75C-78.51 162.75 26.17 138.14 77.53 229.1C96.4 262.51 101.81 294.35 135.42 308.32C138.06 309.42 140.86 310.48 143.85 311.46C228.46 339.12 289.6 316.05 364.97 386.95" stroke="url(#paint26_linear_46_1343)" stroke-miterlimit="10"/>
<path d="M-80.49 168.63C-80.49 168.63 22.83 145.08 74.2 234.03C93.12 266.79 98.97 298 131.96 312.01C134.56 313.12 137.31 314.19 140.26 315.18C223.63 343.36 284.73 323.12 357.95 391.99" stroke="url(#paint27_linear_46_1343)" stroke-miterlimit="10"/>
<path d="M-82.48 174.52C-82.48 174.52 19.49 152.02 70.86 238.98C89.83 271.08 96.13 301.68 128.48 315.72C131.04 316.83 133.75 317.92 136.64 318.93C218.78 347.63 279.84 330.22 350.9 397.06" stroke="url(#paint28_linear_46_1343)" stroke-miterlimit="10"/>
<path d="M-84.4601 180.4C-84.4601 180.4 16.1499 158.96 67.5299 243.91C86.5499 275.35 93.2899 305.34 125.01 319.41C127.53 320.53 130.2 321.63 133.04 322.65C213.94 351.87 274.96 337.29 343.87 402.1" stroke="url(#paint29_linear_46_1343)" stroke-miterlimit="10"/>
<path d="M-86.4401 186.29C-86.4401 186.29 12.8199 165.91 64.1999 248.85C83.2699 279.63 90.4499 309.01 121.55 323.11C124.04 324.24 126.65 325.35 129.44 326.39C209.11 356.13 270.08 344.37 336.84 407.17" stroke="url(#paint30_linear_46_1343)" stroke-miterlimit="10"/>
<path d="M-88.42 192.17C-88.42 192.17 9.49995 172.84 60.8699 253.78C79.99 283.91 87.6199 312.67 118.08 326.8C120.53 327.93 123.1 329.06 125.84 330.11C204.27 360.38 265.2 351.44 329.81 412.21" stroke="url(#paint31_linear_46_1343)" stroke-miterlimit="10"/>
<path d="M-90.41 198.06C-90.41 198.06 6.15997 179.79 57.52 258.72C76.7 288.19 84.76 316.34 114.6 330.5C117.01 331.64 119.53 332.78 122.23 333.85C199.43 364.65 260.31 358.53 322.77 417.27" stroke="url(#paint32_linear_46_1343)" stroke-miterlimit="10"/>
<path d="M-92.39 203.94C-92.39 203.94 2.83999 186.72 54.19 263.65C73.42 292.46 81.92 320.01 111.13 334.19C113.5 335.34 115.98 336.49 118.62 337.57C194.58 368.9 255.43 365.6 315.72 422.32" stroke="url(#paint33_linear_46_1343)" stroke-miterlimit="10"/>
<path d="M-94.37 209.83C-94.37 209.83 -0.48 193.67 50.86 268.59C70.15 296.74 79.08 323.68 107.66 337.89C109.99 339.05 112.43 340.21 115.02 341.31C189.74 373.17 250.55 372.69 308.69 427.38" stroke="url(#paint34_linear_46_1343)" stroke-miterlimit="10"/>
<path d="M-96.36 215.71C-96.36 215.71 -3.79998 200.6 47.52 273.52C66.87 301.01 76.23 327.35 104.19 341.58C106.48 342.75 108.87 343.92 111.41 345.04C184.9 377.44 245.66 379.77 301.65 432.43" stroke="url(#paint35_linear_46_1343)" stroke-miterlimit="10"/>
<path d="M-98.3401 221.6C-98.3401 221.6 -7.11009 207.54 44.1899 278.46C63.5999 305.29 73.3899 331.03 100.72 345.28C102.97 346.45 105.32 347.64 107.81 348.77C180.06 381.71 240.78 386.85 294.62 437.48" stroke="url(#paint36_linear_46_1343)" stroke-miterlimit="10"/>
<path d="M-100.32 227.48C-100.32 227.48 -10.4101 214.47 40.8499 283.39C60.3199 309.56 70.5399 334.7 97.2499 348.97C99.4599 350.15 101.77 351.35 104.21 352.5C175.22 385.98 235.9 393.92 287.59 442.54" stroke="url(#paint37_linear_46_1343)" stroke-miterlimit="10"/>
<path d="M-102.3 233.36C-102.3 233.36 -13.71 221.4 37.52 288.32C57.05 313.83 67.7 338.37 93.78 352.66C95.95 353.85 98.21 355.06 100.6 356.22C170.37 390.24 231.02 400.99 280.55 447.58" stroke="url(#paint38_linear_46_1343)" stroke-miterlimit="10"/>
<path d="M-104.29 239.25C-104.29 239.25 -17.02 228.33 34.18 293.26C53.77 318.11 64.85 342.05 90.3 356.36C92.43 357.56 94.65 358.78 96.99 359.96C165.52 394.53 226.13 408.08 273.51 452.64" stroke="url(#paint39_linear_46_1343)" stroke-miterlimit="10"/>
<path d="M-106.27 245.13C-106.27 245.13 -20.31 235.25 30.85 298.19C50.51 322.37 62 345.73 86.84 360.05C88.93 361.26 91.1 362.49 93.39 363.68C160.68 398.8 221.25 415.15 266.47 457.69" stroke="url(#paint40_linear_46_1343)" stroke-miterlimit="10"/>
<path d="M-108.25 251.02C-108.25 251.02 -23.6 242.18 27.52 303.13C47.25 326.65 59.16 349.41 83.37 363.75C85.42 364.97 87.55 366.21 89.79 367.42C155.84 403.09 216.37 422.24 259.44 462.75" stroke="url(#paint41_linear_46_1343)" stroke-miterlimit="10"/>
<path d="M-110.24 256.9C-110.24 256.9 -26.89 249.1 24.18 308.06C43.98 330.92 56.31 353.09 79.89 367.44C81.9 368.67 83.98 369.92 86.18 371.14C150.98 407.37 211.49 429.31 252.4 467.79" stroke="url(#paint42_linear_46_1343)" stroke-miterlimit="10"/>
<path d="M-112.22 262.79C-112.22 262.79 -30.1701 256.02 20.8399 313C40.7099 335.19 53.4499 356.78 76.4199 371.14C78.3899 372.37 80.4299 373.64 82.5699 374.88C146.13 411.67 206.6 436.39 245.36 472.85" stroke="url(#paint43_linear_46_1343)" stroke-miterlimit="10"/>
<path d="M-114.2 268.67C-114.2 268.67 -33.4401 262.93 17.5099 317.93C37.4499 339.45 50.5999 360.47 72.9499 374.83C74.8899 376.07 76.8799 377.35 78.9699 378.6C141.28 415.95 201.72 443.46 238.33 477.9" stroke="url(#paint44_linear_46_1343)" stroke-miterlimit="10"/>
<path d="M-116.18 274.56C-116.18 274.56 -36.7101 269.85 14.1799 322.87C34.1899 343.72 47.76 364.16 69.49 378.53C71.39 379.78 73.3299 381.07 75.3699 382.34C136.42 420.26 196.84 450.55 231.3 482.96" stroke="url(#paint45_linear_46_1343)" stroke-miterlimit="10"/>
<path d="M-118.17 280.44C-118.17 280.44 -39.9901 276.75 10.84 327.8C30.93 347.98 44.8999 367.85 66.0099 382.22C67.8699 383.48 69.7699 384.78 71.7599 386.06C131.56 424.55 191.95 457.62 224.26 488" stroke="url(#paint46_linear_46_1343)" stroke-miterlimit="10"/>
<path d="M-120.15 286.33C-120.15 286.33 -43.25 283.65 7.50997 332.74C27.68 352.25 42.04 371.55 62.54 385.92C64.36 387.19 66.21 388.5 68.16 389.8C126.7 428.87 187.08 464.71 217.22 493.07" stroke="url(#paint47_linear_46_1343)" stroke-miterlimit="10"/>
<path d="M-122.13 292.21C-122.13 292.21 -46.5 290.54 4.16999 337.67C24.42 356.5 39.18 375.24 59.07 389.61C60.84 390.89 62.66 392.21 64.55 393.52C121.83 433.16 182.19 471.78 210.18 498.11" stroke="url(#paint48_linear_46_1343)" stroke-miterlimit="10"/>
<path d="M-124.12 298.1C-124.12 298.1 -49.77 297.43 0.830009 342.61C21.16 360.76 36.32 378.94 55.59 393.31C57.32 394.6 59.09 395.94 60.94 397.26C116.96 437.48 177.3 478.86 203.14 503.17" stroke="url(#paint49_linear_46_1343)" stroke-miterlimit="10"/>
<path d="M-126.1 303.98C-126.1 303.98 -53.01 304.31 -2.49998 347.54C17.91 365.01 33.46 382.64 52.13 397C53.82 398.3 55.55 399.65 57.34 400.99C112.09 441.8 172.42 485.94 196.11 508.22" stroke="url(#paint50_linear_46_1343)" stroke-miterlimit="10"/>
<path d="M-128.08 309.87C-128.08 309.87 -56.2601 311.18 -5.83008 352.48C14.6699 369.27 30.5999 386.34 48.6599 400.7C50.3099 402.01 51.9899 403.37 53.7399 404.72C107.22 446.11 167.54 493.02 189.08 513.28" stroke="url(#paint51_linear_46_1343)" stroke-miterlimit="10"/>
<path d="M-130.07 315.75C-130.07 315.75 -59.5101 318.04 -9.17007 357.42C11.4099 373.52 27.7299 390.05 45.1799 404.4C46.7899 405.72 48.4299 407.09 50.1299 408.46C102.33 450.44 162.66 500.11 182.04 518.34" stroke="url(#paint52_linear_46_1343)" stroke-miterlimit="10"/>
<path d="M-132.05 321.64C-132.05 321.64 -62.75 324.91 -12.5 362.36C8.16995 377.77 24.86 393.76 41.72 408.1C43.29 409.43 44.88 410.81 46.53 412.19C97.45 454.77 157.78 507.19 175.01 523.39" stroke="url(#paint53_linear_46_1343)" stroke-miterlimit="10"/>
<path d="M-134.03 327.52C-134.03 327.52 -65.98 331.75 -15.84 367.29C4.91997 382 21.98 397.46 38.24 411.79C39.77 413.14 41.32 414.52 42.92 415.92C92.55 459.09 152.89 514.27 167.97 528.45" stroke="url(#paint54_linear_46_1343)" stroke-miterlimit="10"/>
<path d="M-136.01 333.41C-136.01 333.41 -69.22 338.59 -19.17 372.23C1.67999 386.24 19.11 401.18 34.78 415.48C36.27 416.84 37.77 418.24 39.32 419.64C87.66 463.41 148.01 521.34 160.93 533.49" stroke="url(#paint55_linear_46_1343)" stroke-miterlimit="10"/>
<path d="M-138 339.29C-138 339.29 -72.46 345.41 -22.51 377.16C-1.57 390.47 16.23 404.88 31.3 419.17C32.74 420.54 34.2 421.95 35.71 423.37C82.75 467.75 143.13 528.41 153.89 538.54" stroke="url(#paint56_linear_46_1343)" stroke-miterlimit="10"/>
<path d="M-139.98 345.18C-139.98 345.18 -75.7 352.24 -25.84 382.1C-4.80998 394.7 13.35 408.6 27.83 422.87C29.23 424.25 30.65 425.67 32.11 427.1C77.84 472.08 138.25 535.49 146.86 543.59" stroke="url(#paint57_linear_46_1343)" stroke-miterlimit="10"/>
<path d="M-141.96 351.06C-141.96 351.06 -78.9301 359.04 -29.1701 387.03C-8.05008 398.91 10.4699 412.31 24.3699 426.56C25.7299 427.95 27.0999 429.38 28.5099 430.83C72.9299 476.41 133.37 542.57 139.83 548.65" stroke="url(#paint58_linear_46_1343)" stroke-miterlimit="10"/>
<path d="M-143.95 356.94C-143.95 356.94 -82.1801 365.83 -32.5201 391.96C-11.3101 403.12 7.56993 416.02 20.8799 430.25C22.1899 431.65 23.5299 433.09 24.8899 434.55C67.9999 480.75 128.48 549.65 132.79 553.7" stroke="url(#paint59_linear_46_1343)" stroke-miterlimit="10"/>
<path d="M-145.93 362.83C-145.93 362.83 -85.4201 372.61 -35.8501 396.9C-14.5501 407.34 4.67994 419.73 17.4199 433.95C18.6899 435.37 19.9799 436.82 21.2899 438.29C62.9799 485.16 123.59 556.73 125.75 558.75" stroke="url(#paint60_linear_46_1343)" stroke-miterlimit="10"/>
<path d="M-147.91 368.71C-147.91 368.71 -26.37 390.59 13.95 437.64C54.27 484.69 118.72 563.8 118.72 563.8" stroke="url(#paint61_linear_46_1343)" stroke-miterlimit="10"/>
</g>
<defs>
<linearGradient id="paint0_linear_46_1343" x1="-27.1276" y1="127.962" x2="548.262" y2="127.962" gradientUnits="userSpaceOnUse">
<stop/>
<stop offset="0.1172" stop-color="#383838"/>
<stop offset="0.2429" stop-color="#6C6C6C"/>
<stop offset="0.3708" stop-color="#999999"/>
<stop offset="0.4982" stop-color="#BEBEBE"/>
<stop offset="0.6251" stop-color="#DADADA"/>
<stop offset="0.7513" stop-color="#EFEFEF"/>
<stop offset="0.8766" stop-color="#FBFBFB"/>
<stop offset="1" stop-color="white"/>
</linearGradient>
<linearGradient id="paint1_linear_46_1343" x1="-29.1089" y1="133.554" x2="541.226" y2="133.554" gradientUnits="userSpaceOnUse">
<stop/>
<stop offset="0.1172" stop-color="#383838"/>
<stop offset="0.2429" stop-color="#6C6C6C"/>
<stop offset="0.3708" stop-color="#999999"/>
<stop offset="0.4982" stop-color="#BEBEBE"/>
<stop offset="0.6251" stop-color="#DADADA"/>
<stop offset="0.7513" stop-color="#EFEFEF"/>
<stop offset="0.8766" stop-color="#FBFBFB"/>
<stop offset="1" stop-color="white"/>
</linearGradient>
<linearGradient id="paint2_linear_46_1343" x1="-31.0901" y1="139.146" x2="534.19" y2="139.146" gradientUnits="userSpaceOnUse">
<stop/>
<stop offset="0.1172" stop-color="#383838"/>
<stop offset="0.2429" stop-color="#6C6C6C"/>
<stop offset="0.3708" stop-color="#999999"/>
<stop offset="0.4982" stop-color="#BEBEBE"/>
<stop offset="0.6251" stop-color="#DADADA"/>
<stop offset="0.7513" stop-color="#EFEFEF"/>
<stop offset="0.8766" stop-color="#FBFBFB"/>
<stop offset="1" stop-color="white"/>
</linearGradient>
<linearGradient id="paint3_linear_46_1343" x1="-33.0713" y1="144.737" x2="527.154" y2="144.737" gradientUnits="userSpaceOnUse">
<stop/>
<stop offset="0.1172" stop-color="#383838"/>
<stop offset="0.2429" stop-color="#6C6C6C"/>
<stop offset="0.3708" stop-color="#999999"/>
<stop offset="0.4982" stop-color="#BEBEBE"/>
<stop offset="0.6251" stop-color="#DADADA"/>
<stop offset="0.7513" stop-color="#EFEFEF"/>
<stop offset="0.8766" stop-color="#FBFBFB"/>
<stop offset="1" stop-color="white"/>
</linearGradient>
<linearGradient id="paint4_linear_46_1343" x1="-35.0525" y1="150.328" x2="520.117" y2="150.328" gradientUnits="userSpaceOnUse">
<stop/>
<stop offset="0.1172" stop-color="#383838"/>
<stop offset="0.2429" stop-color="#6C6C6C"/>
<stop offset="0.3708" stop-color="#999999"/>
<stop offset="0.4982" stop-color="#BEBEBE"/>
<stop offset="0.6251" stop-color="#DADADA"/>
<stop offset="0.7513" stop-color="#EFEFEF"/>
<stop offset="0.8766" stop-color="#FBFBFB"/>
<stop offset="1" stop-color="white"/>
</linearGradient>
<linearGradient id="paint5_linear_46_1343" x1="-37.0336" y1="155.937" x2="513.081" y2="155.937" gradientUnits="userSpaceOnUse">
<stop/>
<stop offset="0.1172" stop-color="#383838"/>
<stop offset="0.2429" stop-color="#6C6C6C"/>
<stop offset="0.3708" stop-color="#999999"/>
<stop offset="0.4982" stop-color="#BEBEBE"/>
<stop offset="0.6251" stop-color="#DADADA"/>
<stop offset="0.7513" stop-color="#EFEFEF"/>
<stop offset="0.8766" stop-color="#FBFBFB"/>
<stop offset="1" stop-color="white"/>
</linearGradient>
<linearGradient id="paint6_linear_46_1343" x1="-39.0147" y1="161.53" x2="506.045" y2="161.53" gradientUnits="userSpaceOnUse">
<stop/>
<stop offset="0.1172" stop-color="#383838"/>
<stop offset="0.2429" stop-color="#6C6C6C"/>
<stop offset="0.3708" stop-color="#999999"/>
<stop offset="0.4982" stop-color="#BEBEBE"/>
<stop offset="0.6251" stop-color="#DADADA"/>
<stop offset="0.7513" stop-color="#EFEFEF"/>
<stop offset="0.8766" stop-color="#FBFBFB"/>
<stop offset="1" stop-color="white"/>
</linearGradient>
<linearGradient id="paint7_linear_46_1343" x1="-40.9959" y1="167.124" x2="499.009" y2="167.124" gradientUnits="userSpaceOnUse">
<stop/>
<stop offset="0.1172" stop-color="#383838"/>
<stop offset="0.2429" stop-color="#6C6C6C"/>
<stop offset="0.3708" stop-color="#999999"/>
<stop offset="0.4982" stop-color="#BEBEBE"/>
<stop offset="0.6251" stop-color="#DADADA"/>
<stop offset="0.7513" stop-color="#EFEFEF"/>
<stop offset="0.8766" stop-color="#FBFBFB"/>
<stop offset="1" stop-color="white"/>
</linearGradient>
<linearGradient id="paint8_linear_46_1343" x1="-42.9769" y1="172.716" x2="491.973" y2="172.716" gradientUnits="userSpaceOnUse">
<stop/>
<stop offset="0.1172" stop-color="#383838"/>
<stop offset="0.2429" stop-color="#6C6C6C"/>
<stop offset="0.3708" stop-color="#999999"/>
<stop offset="0.4982" stop-color="#BEBEBE"/>
<stop offset="0.6251" stop-color="#DADADA"/>
<stop offset="0.7513" stop-color="#EFEFEF"/>
<stop offset="0.8766" stop-color="#FBFBFB"/>
<stop offset="1" stop-color="white"/>
</linearGradient>
<linearGradient id="paint9_linear_46_1343" x1="-44.9577" y1="178.309" x2="484.937" y2="178.309" gradientUnits="userSpaceOnUse">
<stop/>
<stop offset="0.1172" stop-color="#383838"/>
<stop offset="0.2429" stop-color="#6C6C6C"/>
<stop offset="0.3708" stop-color="#999999"/>
<stop offset="0.4982" stop-color="#BEBEBE"/>
<stop offset="0.6251" stop-color="#DADADA"/>
<stop offset="0.7513" stop-color="#EFEFEF"/>
<stop offset="0.8766" stop-color="#FBFBFB"/>
<stop offset="1" stop-color="white"/>
</linearGradient>
<linearGradient id="paint10_linear_46_1343" x1="-46.9387" y1="183.901" x2="477.901" y2="183.901" gradientUnits="userSpaceOnUse">
<stop/>
<stop offset="0.1172" stop-color="#383838"/>
<stop offset="0.2429" stop-color="#6C6C6C"/>
<stop offset="0.3708" stop-color="#999999"/>
<stop offset="0.4982" stop-color="#BEBEBE"/>
<stop offset="0.6251" stop-color="#DADADA"/>
<stop offset="0.7513" stop-color="#EFEFEF"/>
<stop offset="0.8766" stop-color="#FBFBFB"/>
<stop offset="1" stop-color="white"/>
</linearGradient>
<linearGradient id="paint11_linear_46_1343" x1="-48.9196" y1="189.492" x2="470.865" y2="189.492" gradientUnits="userSpaceOnUse">
<stop/>
<stop offset="0.1172" stop-color="#383838"/>
<stop offset="0.2429" stop-color="#6C6C6C"/>
<stop offset="0.3708" stop-color="#999999"/>
<stop offset="0.4982" stop-color="#BEBEBE"/>
<stop offset="0.6251" stop-color="#DADADA"/>
<stop offset="0.7513" stop-color="#EFEFEF"/>
<stop offset="0.8766" stop-color="#FBFBFB"/>
<stop offset="1" stop-color="white"/>
</linearGradient>
<linearGradient id="paint12_linear_46_1343" x1="-50.9004" y1="195.083" x2="463.828" y2="195.083" gradientUnits="userSpaceOnUse">
<stop/>
<stop offset="0.1172" stop-color="#383838"/>
<stop offset="0.2429" stop-color="#6C6C6C"/>
<stop offset="0.3708" stop-color="#999999"/>
<stop offset="0.4982" stop-color="#BEBEBE"/>
<stop offset="0.6251" stop-color="#DADADA"/>
<stop offset="0.7513" stop-color="#EFEFEF"/>
<stop offset="0.8766" stop-color="#FBFBFB"/>
<stop offset="1" stop-color="white"/>
</linearGradient>
<linearGradient id="paint13_linear_46_1343" x1="-52.8811" y1="200.673" x2="456.792" y2="200.673" gradientUnits="userSpaceOnUse">
<stop/>
<stop offset="0.1172" stop-color="#383838"/>
<stop offset="0.2429" stop-color="#6C6C6C"/>
<stop offset="0.3708" stop-color="#999999"/>
<stop offset="0.4982" stop-color="#BEBEBE"/>
<stop offset="0.6251" stop-color="#DADADA"/>
<stop offset="0.7513" stop-color="#EFEFEF"/>
<stop offset="0.8766" stop-color="#FBFBFB"/>
<stop offset="1" stop-color="white"/>
</linearGradient>
<linearGradient id="paint14_linear_46_1343" x1="-54.8618" y1="206.262" x2="449.756" y2="206.262" gradientUnits="userSpaceOnUse">
<stop/>
<stop offset="0.1172" stop-color="#383838"/>
<stop offset="0.2429" stop-color="#6C6C6C"/>
<stop offset="0.3708" stop-color="#999999"/>
<stop offset="0.4982" stop-color="#BEBEBE"/>
<stop offset="0.6251" stop-color="#DADADA"/>
<stop offset="0.7513" stop-color="#EFEFEF"/>
<stop offset="0.8766" stop-color="#FBFBFB"/>
<stop offset="1" stop-color="white"/>
</linearGradient>
<linearGradient id="paint15_linear_46_1343" x1="-56.8424" y1="211.851" x2="442.72" y2="211.851" gradientUnits="userSpaceOnUse">
<stop/>
<stop offset="0.1172" stop-color="#383838"/>
<stop offset="0.2429" stop-color="#6C6C6C"/>
<stop offset="0.3708" stop-color="#999999"/>
<stop offset="0.4982" stop-color="#BEBEBE"/>
<stop offset="0.6251" stop-color="#DADADA"/>
<stop offset="0.7513" stop-color="#EFEFEF"/>
<stop offset="0.8766" stop-color="#FBFBFB"/>
<stop offset="1" stop-color="white"/>
</linearGradient>
<linearGradient id="paint16_linear_46_1343" x1="-58.823" y1="217.439" x2="435.684" y2="217.439" gradientUnits="userSpaceOnUse">
<stop/>
<stop offset="0.1172" stop-color="#383838"/>
<stop offset="0.2429" stop-color="#6C6C6C"/>
<stop offset="0.3708" stop-color="#999999"/>
<stop offset="0.4982" stop-color="#BEBEBE"/>
<stop offset="0.6251" stop-color="#DADADA"/>
<stop offset="0.7513" stop-color="#EFEFEF"/>
<stop offset="0.8766" stop-color="#FBFBFB"/>
<stop offset="1" stop-color="white"/>
</linearGradient>
<linearGradient id="paint17_linear_46_1343" x1="-60.8033" y1="223.026" x2="428.648" y2="223.026" gradientUnits="userSpaceOnUse">
<stop/>
<stop offset="0.1172" stop-color="#383838"/>
<stop offset="0.2429" stop-color="#6C6C6C"/>
<stop offset="0.3708" stop-color="#999999"/>
<stop offset="0.4982" stop-color="#BEBEBE"/>
<stop offset="0.6251" stop-color="#DADADA"/>
<stop offset="0.7513" stop-color="#EFEFEF"/>
<stop offset="0.8766" stop-color="#FBFBFB"/>
<stop offset="1" stop-color="white"/>
</linearGradient>
<linearGradient id="paint18_linear_46_1343" x1="-62.7837" y1="228.612" x2="421.612" y2="228.612" gradientUnits="userSpaceOnUse">
<stop/>
<stop offset="0.1172" stop-color="#383838"/>
<stop offset="0.2429" stop-color="#6C6C6C"/>
<stop offset="0.3708" stop-color="#999999"/>
<stop offset="0.4982" stop-color="#BEBEBE"/>
<stop offset="0.6251" stop-color="#DADADA"/>
<stop offset="0.7513" stop-color="#EFEFEF"/>
<stop offset="0.8766" stop-color="#FBFBFB"/>
<stop offset="1" stop-color="white"/>
</linearGradient>
<linearGradient id="paint19_linear_46_1343" x1="-64.764" y1="234.197" x2="414.575" y2="234.197" gradientUnits="userSpaceOnUse">
<stop/>
<stop offset="0.1172" stop-color="#383838"/>
<stop offset="0.2429" stop-color="#6C6C6C"/>
<stop offset="0.3708" stop-color="#999999"/>
<stop offset="0.4982" stop-color="#BEBEBE"/>
<stop offset="0.6251" stop-color="#DADADA"/>
<stop offset="0.7513" stop-color="#EFEFEF"/>
<stop offset="0.8766" stop-color="#FBFBFB"/>
<stop offset="1" stop-color="white"/>
</linearGradient>
<linearGradient id="paint20_linear_46_1343" x1="-66.7444" y1="239.781" x2="407.539" y2="239.781" gradientUnits="userSpaceOnUse">
<stop/>
<stop offset="0.1172" stop-color="#383838"/>
<stop offset="0.2429" stop-color="#6C6C6C"/>
<stop offset="0.3708" stop-color="#999999"/>
<stop offset="0.4982" stop-color="#BEBEBE"/>
<stop offset="0.6251" stop-color="#DADADA"/>
<stop offset="0.7513" stop-color="#EFEFEF"/>
<stop offset="0.8766" stop-color="#FBFBFB"/>
<stop offset="1" stop-color="white"/>
</linearGradient>
<linearGradient id="paint21_linear_46_1343" x1="-68.7246" y1="245.365" x2="400.503" y2="245.365" gradientUnits="userSpaceOnUse">
<stop/>
<stop offset="0.1172" stop-color="#383838"/>
<stop offset="0.2429" stop-color="#6C6C6C"/>
<stop offset="0.3708" stop-color="#999999"/>
<stop offset="0.4982" stop-color="#BEBEBE"/>
<stop offset="0.6251" stop-color="#DADADA"/>
<stop offset="0.7513" stop-color="#EFEFEF"/>
<stop offset="0.8766" stop-color="#FBFBFB"/>
<stop offset="1" stop-color="white"/>
</linearGradient>
<linearGradient id="paint22_linear_46_1343" x1="-70.7047" y1="250.946" x2="393.467" y2="250.946" gradientUnits="userSpaceOnUse">
<stop/>
<stop offset="0.1172" stop-color="#383838"/>
<stop offset="0.2429" stop-color="#6C6C6C"/>
<stop offset="0.3708" stop-color="#999999"/>
<stop offset="0.4982" stop-color="#BEBEBE"/>
<stop offset="0.6251" stop-color="#DADADA"/>
<stop offset="0.7513" stop-color="#EFEFEF"/>
<stop offset="0.8766" stop-color="#FBFBFB"/>
<stop offset="1" stop-color="white"/>
</linearGradient>
<linearGradient id="paint23_linear_46_1343" x1="-72.6847" y1="256.527" x2="386.431" y2="256.527" gradientUnits="userSpaceOnUse">
<stop/>
<stop offset="0.1172" stop-color="#383838"/>
<stop offset="0.2429" stop-color="#6C6C6C"/>
<stop offset="0.3708" stop-color="#999999"/>
<stop offset="0.4982" stop-color="#BEBEBE"/>
<stop offset="0.6251" stop-color="#DADADA"/>
<stop offset="0.7513" stop-color="#EFEFEF"/>
<stop offset="0.8766" stop-color="#FBFBFB"/>
<stop offset="1" stop-color="white"/>
</linearGradient>
<linearGradient id="paint24_linear_46_1343" x1="-74.6644" y1="262.107" x2="379.395" y2="262.107" gradientUnits="userSpaceOnUse">
<stop/>
<stop offset="0.1172" stop-color="#383838"/>
<stop offset="0.2429" stop-color="#6C6C6C"/>
<stop offset="0.3708" stop-color="#999999"/>
<stop offset="0.4982" stop-color="#BEBEBE"/>
<stop offset="0.6251" stop-color="#DADADA"/>
<stop offset="0.7513" stop-color="#EFEFEF"/>
<stop offset="0.8766" stop-color="#FBFBFB"/>
<stop offset="1" stop-color="white"/>
</linearGradient>
<linearGradient id="paint25_linear_46_1343" x1="-76.6442" y1="267.684" x2="372.359" y2="267.684" gradientUnits="userSpaceOnUse">
<stop/>
<stop offset="0.1172" stop-color="#383838"/>
<stop offset="0.2429" stop-color="#6C6C6C"/>
<stop offset="0.3708" stop-color="#999999"/>
<stop offset="0.4982" stop-color="#BEBEBE"/>
<stop offset="0.6251" stop-color="#DADADA"/>
<stop offset="0.7513" stop-color="#EFEFEF"/>
<stop offset="0.8766" stop-color="#FBFBFB"/>
<stop offset="1" stop-color="white"/>
</linearGradient>
<linearGradient id="paint26_linear_46_1343" x1="-78.6239" y1="273.261" x2="365.323" y2="273.261" gradientUnits="userSpaceOnUse">
<stop/>
<stop offset="0.1172" stop-color="#383838"/>
<stop offset="0.2429" stop-color="#6C6C6C"/>
<stop offset="0.3708" stop-color="#999999"/>
<stop offset="0.4982" stop-color="#BEBEBE"/>
<stop offset="0.6251" stop-color="#DADADA"/>
<stop offset="0.7513" stop-color="#EFEFEF"/>
<stop offset="0.8766" stop-color="#FBFBFB"/>
<stop offset="1" stop-color="white"/>
</linearGradient>
<linearGradient id="paint27_linear_46_1343" x1="-80.6035" y1="278.835" x2="358.287" y2="278.835" gradientUnits="userSpaceOnUse">
<stop/>
<stop offset="0.1172" stop-color="#383838"/>
<stop offset="0.2429" stop-color="#6C6C6C"/>
<stop offset="0.3708" stop-color="#999999"/>
<stop offset="0.4982" stop-color="#BEBEBE"/>
<stop offset="0.6251" stop-color="#DADADA"/>
<stop offset="0.7513" stop-color="#EFEFEF"/>
<stop offset="0.8766" stop-color="#FBFBFB"/>
<stop offset="1" stop-color="white"/>
</linearGradient>
<linearGradient id="paint28_linear_46_1343" x1="-82.583" y1="284.408" x2="351.25" y2="284.408" gradientUnits="userSpaceOnUse">
<stop/>
<stop offset="0.1172" stop-color="#383838"/>
<stop offset="0.2429" stop-color="#6C6C6C"/>
<stop offset="0.3708" stop-color="#999999"/>
<stop offset="0.4982" stop-color="#BEBEBE"/>
<stop offset="0.6251" stop-color="#DADADA"/>
<stop offset="0.7513" stop-color="#EFEFEF"/>
<stop offset="0.8766" stop-color="#FBFBFB"/>
<stop offset="1" stop-color="white"/>
</linearGradient>
<linearGradient id="paint29_linear_46_1343" x1="-84.5625" y1="289.979" x2="344.214" y2="289.979" gradientUnits="userSpaceOnUse">
<stop/>
<stop offset="0.1172" stop-color="#383838"/>
<stop offset="0.2429" stop-color="#6C6C6C"/>
<stop offset="0.3708" stop-color="#999999"/>
<stop offset="0.4982" stop-color="#BEBEBE"/>
<stop offset="0.6251" stop-color="#DADADA"/>
<stop offset="0.7513" stop-color="#EFEFEF"/>
<stop offset="0.8766" stop-color="#FBFBFB"/>
<stop offset="1" stop-color="white"/>
</linearGradient>
<linearGradient id="paint30_linear_46_1343" x1="-86.5419" y1="295.547" x2="337.178" y2="295.547" gradientUnits="userSpaceOnUse">
<stop/>
<stop offset="0.1172" stop-color="#383838"/>
<stop offset="0.2429" stop-color="#6C6C6C"/>
<stop offset="0.3708" stop-color="#999999"/>
<stop offset="0.4982" stop-color="#BEBEBE"/>
<stop offset="0.6251" stop-color="#DADADA"/>
<stop offset="0.7513" stop-color="#EFEFEF"/>
<stop offset="0.8766" stop-color="#FBFBFB"/>
<stop offset="1" stop-color="white"/>
</linearGradient>
<linearGradient id="paint31_linear_46_1343" x1="-88.5209" y1="301.114" x2="330.142" y2="301.114" gradientUnits="userSpaceOnUse">
<stop/>
<stop offset="0.1172" stop-color="#383838"/>
<stop offset="0.2429" stop-color="#6C6C6C"/>
<stop offset="0.3708" stop-color="#999999"/>
<stop offset="0.4982" stop-color="#BEBEBE"/>
<stop offset="0.6251" stop-color="#DADADA"/>
<stop offset="0.7513" stop-color="#EFEFEF"/>
<stop offset="0.8766" stop-color="#FBFBFB"/>
<stop offset="1" stop-color="white"/>
</linearGradient>
<linearGradient id="paint32_linear_46_1343" x1="-90.4999" y1="306.677" x2="323.106" y2="306.677" gradientUnits="userSpaceOnUse">
<stop/>
<stop offset="0.1172" stop-color="#383838"/>
<stop offset="0.2429" stop-color="#6C6C6C"/>
<stop offset="0.3708" stop-color="#999999"/>
<stop offset="0.4982" stop-color="#BEBEBE"/>
<stop offset="0.6251" stop-color="#DADADA"/>
<stop offset="0.7513" stop-color="#EFEFEF"/>
<stop offset="0.8766" stop-color="#FBFBFB"/>
<stop offset="1" stop-color="white"/>
</linearGradient>
<linearGradient id="paint33_linear_46_1343" x1="-92.4788" y1="312.238" x2="316.07" y2="312.238" gradientUnits="userSpaceOnUse">
<stop/>
<stop offset="0.1172" stop-color="#383838"/>
<stop offset="0.2429" stop-color="#6C6C6C"/>
<stop offset="0.3708" stop-color="#999999"/>
<stop offset="0.4982" stop-color="#BEBEBE"/>
<stop offset="0.6251" stop-color="#DADADA"/>
<stop offset="0.7513" stop-color="#EFEFEF"/>
<stop offset="0.8766" stop-color="#FBFBFB"/>
<stop offset="1" stop-color="white"/>
</linearGradient>
<linearGradient id="paint34_linear_46_1343" x1="-94.4576" y1="317.796" x2="309.033" y2="317.796" gradientUnits="userSpaceOnUse">
<stop/>
<stop offset="0.1172" stop-color="#383838"/>
<stop offset="0.2429" stop-color="#6C6C6C"/>
<stop offset="0.3708" stop-color="#999999"/>
<stop offset="0.4982" stop-color="#BEBEBE"/>
<stop offset="0.6251" stop-color="#DADADA"/>
<stop offset="0.7513" stop-color="#EFEFEF"/>
<stop offset="0.8766" stop-color="#FBFBFB"/>
<stop offset="1" stop-color="white"/>
</linearGradient>
<linearGradient id="paint35_linear_46_1343" x1="-96.4362" y1="323.351" x2="301.997" y2="323.351" gradientUnits="userSpaceOnUse">
<stop/>
<stop offset="0.1172" stop-color="#383838"/>
<stop offset="0.2429" stop-color="#6C6C6C"/>
<stop offset="0.3708" stop-color="#999999"/>
<stop offset="0.4982" stop-color="#BEBEBE"/>
<stop offset="0.6251" stop-color="#DADADA"/>
<stop offset="0.7513" stop-color="#EFEFEF"/>
<stop offset="0.8766" stop-color="#FBFBFB"/>
<stop offset="1" stop-color="white"/>
</linearGradient>
<linearGradient id="paint36_linear_46_1343" x1="-98.4148" y1="328.901" x2="294.961" y2="328.901" gradientUnits="userSpaceOnUse">
<stop/>
<stop offset="0.1172" stop-color="#383838"/>
<stop offset="0.2429" stop-color="#6C6C6C"/>
<stop offset="0.3708" stop-color="#999999"/>
<stop offset="0.4982" stop-color="#BEBEBE"/>
<stop offset="0.6251" stop-color="#DADADA"/>
<stop offset="0.7513" stop-color="#EFEFEF"/>
<stop offset="0.8766" stop-color="#FBFBFB"/>
<stop offset="1" stop-color="white"/>
</linearGradient>
<linearGradient id="paint37_linear_46_1343" x1="-100.393" y1="334.448" x2="287.925" y2="334.448" gradientUnits="userSpaceOnUse">
<stop/>
<stop offset="0.1172" stop-color="#383838"/>
<stop offset="0.2429" stop-color="#6C6C6C"/>
<stop offset="0.3708" stop-color="#999999"/>
<stop offset="0.4982" stop-color="#BEBEBE"/>
<stop offset="0.6251" stop-color="#DADADA"/>
<stop offset="0.7513" stop-color="#EFEFEF"/>
<stop offset="0.8766" stop-color="#FBFBFB"/>
<stop offset="1" stop-color="white"/>
</linearGradient>
<linearGradient id="paint38_linear_46_1343" x1="-102.371" y1="339.991" x2="280.889" y2="339.991" gradientUnits="userSpaceOnUse">
<stop/>
<stop offset="0.1172" stop-color="#383838"/>
<stop offset="0.2429" stop-color="#6C6C6C"/>
<stop offset="0.3708" stop-color="#999999"/>
<stop offset="0.4982" stop-color="#BEBEBE"/>
<stop offset="0.6251" stop-color="#DADADA"/>
<stop offset="0.7513" stop-color="#EFEFEF"/>
<stop offset="0.8766" stop-color="#FBFBFB"/>
<stop offset="1" stop-color="white"/>
</linearGradient>
<linearGradient id="paint39_linear_46_1343" x1="-104.349" y1="345.529" x2="273.853" y2="345.529" gradientUnits="userSpaceOnUse">
<stop/>
<stop offset="0.1172" stop-color="#383838"/>
<stop offset="0.2429" stop-color="#6C6C6C"/>
<stop offset="0.3708" stop-color="#999999"/>
<stop offset="0.4982" stop-color="#BEBEBE"/>
<stop offset="0.6251" stop-color="#DADADA"/>
<stop offset="0.7513" stop-color="#EFEFEF"/>
<stop offset="0.8766" stop-color="#FBFBFB"/>
<stop offset="1" stop-color="white"/>
</linearGradient>
<linearGradient id="paint40_linear_46_1343" x1="-106.327" y1="351.062" x2="266.817" y2="351.062" gradientUnits="userSpaceOnUse">
<stop/>
<stop offset="0.1172" stop-color="#383838"/>
<stop offset="0.2429" stop-color="#6C6C6C"/>
<stop offset="0.3708" stop-color="#999999"/>
<stop offset="0.4982" stop-color="#BEBEBE"/>
<stop offset="0.6251" stop-color="#DADADA"/>
<stop offset="0.7513" stop-color="#EFEFEF"/>
<stop offset="0.8766" stop-color="#FBFBFB"/>
<stop offset="1" stop-color="white"/>
</linearGradient>
<linearGradient id="paint41_linear_46_1343" x1="-108.305" y1="356.59" x2="259.781" y2="356.59" gradientUnits="userSpaceOnUse">
<stop/>
<stop offset="0.1172" stop-color="#383838"/>
<stop offset="0.2429" stop-color="#6C6C6C"/>
<stop offset="0.3708" stop-color="#999999"/>
<stop offset="0.4982" stop-color="#BEBEBE"/>
<stop offset="0.6251" stop-color="#DADADA"/>
<stop offset="0.7513" stop-color="#EFEFEF"/>
<stop offset="0.8766" stop-color="#FBFBFB"/>
<stop offset="1" stop-color="white"/>
</linearGradient>
<linearGradient id="paint42_linear_46_1343" x1="-110.283" y1="362.111" x2="252.744" y2="362.111" gradientUnits="userSpaceOnUse">
<stop/>
<stop offset="0.1172" stop-color="#383838"/>
<stop offset="0.2429" stop-color="#6C6C6C"/>
<stop offset="0.3708" stop-color="#999999"/>
<stop offset="0.4982" stop-color="#BEBEBE"/>
<stop offset="0.6251" stop-color="#DADADA"/>
<stop offset="0.7513" stop-color="#EFEFEF"/>
<stop offset="0.8766" stop-color="#FBFBFB"/>
<stop offset="1" stop-color="white"/>
</linearGradient>
<linearGradient id="paint43_linear_46_1343" x1="-112.26" y1="367.626" x2="245.708" y2="367.626" gradientUnits="userSpaceOnUse">
<stop/>
<stop offset="0.1172" stop-color="#383838"/>
<stop offset="0.2429" stop-color="#6C6C6C"/>
<stop offset="0.3708" stop-color="#999999"/>
<stop offset="0.4982" stop-color="#BEBEBE"/>
<stop offset="0.6251" stop-color="#DADADA"/>
<stop offset="0.7513" stop-color="#EFEFEF"/>
<stop offset="0.8766" stop-color="#FBFBFB"/>
<stop offset="1" stop-color="white"/>
</linearGradient>
<linearGradient id="paint44_linear_46_1343" x1="-114.237" y1="373.134" x2="238.672" y2="373.134" gradientUnits="userSpaceOnUse">
<stop/>
<stop offset="0.1172" stop-color="#383838"/>
<stop offset="0.2429" stop-color="#6C6C6C"/>
<stop offset="0.3708" stop-color="#999999"/>
<stop offset="0.4982" stop-color="#BEBEBE"/>
<stop offset="0.6251" stop-color="#DADADA"/>
<stop offset="0.7513" stop-color="#EFEFEF"/>
<stop offset="0.8766" stop-color="#FBFBFB"/>
<stop offset="1" stop-color="white"/>
</linearGradient>
<linearGradient id="paint45_linear_46_1343" x1="-116.214" y1="378.635" x2="231.636" y2="378.635" gradientUnits="userSpaceOnUse">
<stop/>
<stop offset="0.1172" stop-color="#383838"/>
<stop offset="0.2429" stop-color="#6C6C6C"/>
<stop offset="0.3708" stop-color="#999999"/>
<stop offset="0.4982" stop-color="#BEBEBE"/>
<stop offset="0.6251" stop-color="#DADADA"/>
<stop offset="0.7513" stop-color="#EFEFEF"/>
<stop offset="0.8766" stop-color="#FBFBFB"/>
<stop offset="1" stop-color="white"/>
</linearGradient>
<linearGradient id="paint46_linear_46_1343" x1="-118.191" y1="384.128" x2="224.6" y2="384.128" gradientUnits="userSpaceOnUse">
<stop/>
<stop offset="0.1172" stop-color="#383838"/>
<stop offset="0.2429" stop-color="#6C6C6C"/>
<stop offset="0.3708" stop-color="#999999"/>
<stop offset="0.4982" stop-color="#BEBEBE"/>
<stop offset="0.6251" stop-color="#DADADA"/>
<stop offset="0.7513" stop-color="#EFEFEF"/>
<stop offset="0.8766" stop-color="#FBFBFB"/>
<stop offset="1" stop-color="white"/>
</linearGradient>
<linearGradient id="paint47_linear_46_1343" x1="-120.168" y1="389.614" x2="217.564" y2="389.614" gradientUnits="userSpaceOnUse">
<stop/>
<stop offset="0.1172" stop-color="#383838"/>
<stop offset="0.2429" stop-color="#6C6C6C"/>
<stop offset="0.3708" stop-color="#999999"/>
<stop offset="0.4982" stop-color="#BEBEBE"/>
<stop offset="0.6251" stop-color="#DADADA"/>
<stop offset="0.7513" stop-color="#EFEFEF"/>
<stop offset="0.8766" stop-color="#FBFBFB"/>
<stop offset="1" stop-color="white"/>
</linearGradient>
<linearGradient id="paint48_linear_46_1343" x1="-122.145" y1="395.092" x2="210.528" y2="395.092" gradientUnits="userSpaceOnUse">
<stop/>
<stop offset="0.1172" stop-color="#383838"/>
<stop offset="0.2429" stop-color="#6C6C6C"/>
<stop offset="0.3708" stop-color="#999999"/>
<stop offset="0.4982" stop-color="#BEBEBE"/>
<stop offset="0.6251" stop-color="#DADADA"/>
<stop offset="0.7513" stop-color="#EFEFEF"/>
<stop offset="0.8766" stop-color="#FBFBFB"/>
<stop offset="1" stop-color="white"/>
</linearGradient>
<linearGradient id="paint49_linear_46_1343" x1="-124.121" y1="400.565" x2="203.492" y2="400.565" gradientUnits="userSpaceOnUse">
<stop/>
<stop offset="0.1172" stop-color="#383838"/>
<stop offset="0.2429" stop-color="#6C6C6C"/>
<stop offset="0.3708" stop-color="#999999"/>
<stop offset="0.4982" stop-color="#BEBEBE"/>
<stop offset="0.6251" stop-color="#DADADA"/>
<stop offset="0.7513" stop-color="#EFEFEF"/>
<stop offset="0.8766" stop-color="#FBFBFB"/>
<stop offset="1" stop-color="white"/>
</linearGradient>
<linearGradient id="paint50_linear_46_1343" x1="-126.101" y1="406.034" x2="196.455" y2="406.034" gradientUnits="userSpaceOnUse">
<stop/>
<stop offset="0.1172" stop-color="#383838"/>
<stop offset="0.2429" stop-color="#6C6C6C"/>
<stop offset="0.3708" stop-color="#999999"/>
<stop offset="0.4982" stop-color="#BEBEBE"/>
<stop offset="0.6251" stop-color="#DADADA"/>
<stop offset="0.7513" stop-color="#EFEFEF"/>
<stop offset="0.8766" stop-color="#FBFBFB"/>
<stop offset="1" stop-color="white"/>
</linearGradient>
<linearGradient id="paint51_linear_46_1343" x1="-128.091" y1="411.503" x2="189.419" y2="411.503" gradientUnits="userSpaceOnUse">
<stop/>
<stop offset="0.1172" stop-color="#383838"/>
<stop offset="0.2429" stop-color="#6C6C6C"/>
<stop offset="0.3708" stop-color="#999999"/>
<stop offset="0.4982" stop-color="#BEBEBE"/>
<stop offset="0.6251" stop-color="#DADADA"/>
<stop offset="0.7513" stop-color="#EFEFEF"/>
<stop offset="0.8766" stop-color="#FBFBFB"/>
<stop offset="1" stop-color="white"/>
</linearGradient>
<linearGradient id="paint52_linear_46_1343" x1="-130.081" y1="416.972" x2="182.383" y2="416.972" gradientUnits="userSpaceOnUse">
<stop/>
<stop offset="0.1172" stop-color="#383838"/>
<stop offset="0.2429" stop-color="#6C6C6C"/>
<stop offset="0.3708" stop-color="#999999"/>
<stop offset="0.4982" stop-color="#BEBEBE"/>
<stop offset="0.6251" stop-color="#DADADA"/>
<stop offset="0.7513" stop-color="#EFEFEF"/>
<stop offset="0.8766" stop-color="#FBFBFB"/>
<stop offset="1" stop-color="white"/>
</linearGradient>
<linearGradient id="paint53_linear_46_1343" x1="-132.072" y1="422.441" x2="175.347" y2="422.441" gradientUnits="userSpaceOnUse">
<stop/>
<stop offset="0.1172" stop-color="#383838"/>
<stop offset="0.2429" stop-color="#6C6C6C"/>
<stop offset="0.3708" stop-color="#999999"/>
<stop offset="0.4982" stop-color="#BEBEBE"/>
<stop offset="0.6251" stop-color="#DADADA"/>
<stop offset="0.7513" stop-color="#EFEFEF"/>
<stop offset="0.8766" stop-color="#FBFBFB"/>
<stop offset="1" stop-color="white"/>
</linearGradient>
<linearGradient id="paint54_linear_46_1343" x1="-134.062" y1="427.91" x2="168.311" y2="427.91" gradientUnits="userSpaceOnUse">
<stop/>
<stop offset="0.1172" stop-color="#383838"/>
<stop offset="0.2429" stop-color="#6C6C6C"/>
<stop offset="0.3708" stop-color="#999999"/>
<stop offset="0.4982" stop-color="#BEBEBE"/>
<stop offset="0.6251" stop-color="#DADADA"/>
<stop offset="0.7513" stop-color="#EFEFEF"/>
<stop offset="0.8766" stop-color="#FBFBFB"/>
<stop offset="1" stop-color="white"/>
</linearGradient>
<linearGradient id="paint55_linear_46_1343" x1="-136.053" y1="433.38" x2="161.275" y2="433.38" gradientUnits="userSpaceOnUse">
<stop/>
<stop offset="0.1172" stop-color="#383838"/>
<stop offset="0.2429" stop-color="#6C6C6C"/>
<stop offset="0.3708" stop-color="#999999"/>
<stop offset="0.4982" stop-color="#BEBEBE"/>
<stop offset="0.6251" stop-color="#DADADA"/>
<stop offset="0.7513" stop-color="#EFEFEF"/>
<stop offset="0.8766" stop-color="#FBFBFB"/>
<stop offset="1" stop-color="white"/>
</linearGradient>
<linearGradient id="paint56_linear_46_1343" x1="-138.043" y1="438.849" x2="154.239" y2="438.849" gradientUnits="userSpaceOnUse">
<stop/>
<stop offset="0.1172" stop-color="#383838"/>
<stop offset="0.2429" stop-color="#6C6C6C"/>
<stop offset="0.3708" stop-color="#999999"/>
<stop offset="0.4982" stop-color="#BEBEBE"/>
<stop offset="0.6251" stop-color="#DADADA"/>
<stop offset="0.7513" stop-color="#EFEFEF"/>
<stop offset="0.8766" stop-color="#FBFBFB"/>
<stop offset="1" stop-color="white"/>
</linearGradient>
<linearGradient id="paint57_linear_46_1343" x1="-140.034" y1="444.318" x2="147.203" y2="444.318" gradientUnits="userSpaceOnUse">
<stop/>
<stop offset="0.1172" stop-color="#383838"/>
<stop offset="0.2429" stop-color="#6C6C6C"/>
<stop offset="0.3708" stop-color="#999999"/>
<stop offset="0.4982" stop-color="#BEBEBE"/>
<stop offset="0.6251" stop-color="#DADADA"/>
<stop offset="0.7513" stop-color="#EFEFEF"/>
<stop offset="0.8766" stop-color="#FBFBFB"/>
<stop offset="1" stop-color="white"/>
</linearGradient>
<linearGradient id="paint58_linear_46_1343" x1="-142.025" y1="449.788" x2="140.166" y2="449.788" gradientUnits="userSpaceOnUse">
<stop/>
<stop offset="0.1172" stop-color="#383838"/>
<stop offset="0.2429" stop-color="#6C6C6C"/>
<stop offset="0.3708" stop-color="#999999"/>
<stop offset="0.4982" stop-color="#BEBEBE"/>
<stop offset="0.6251" stop-color="#DADADA"/>
<stop offset="0.7513" stop-color="#EFEFEF"/>
<stop offset="0.8766" stop-color="#FBFBFB"/>
<stop offset="1" stop-color="white"/>
</linearGradient>
<linearGradient id="paint59_linear_46_1343" x1="-144.017" y1="455.257" x2="133.13" y2="455.257" gradientUnits="userSpaceOnUse">
<stop/>
<stop offset="0.1172" stop-color="#383838"/>
<stop offset="0.2429" stop-color="#6C6C6C"/>
<stop offset="0.3708" stop-color="#999999"/>
<stop offset="0.4982" stop-color="#BEBEBE"/>
<stop offset="0.6251" stop-color="#DADADA"/>
<stop offset="0.7513" stop-color="#EFEFEF"/>
<stop offset="0.8766" stop-color="#FBFBFB"/>
<stop offset="1" stop-color="white"/>
</linearGradient>
<linearGradient id="paint60_linear_46_1343" x1="-146.008" y1="460.727" x2="126.094" y2="460.727" gradientUnits="userSpaceOnUse">
<stop/>
<stop offset="0.1172" stop-color="#383838"/>
<stop offset="0.2429" stop-color="#6C6C6C"/>
<stop offset="0.3708" stop-color="#999999"/>
<stop offset="0.4982" stop-color="#BEBEBE"/>
<stop offset="0.6251" stop-color="#DADADA"/>
<stop offset="0.7513" stop-color="#EFEFEF"/>
<stop offset="0.8766" stop-color="#FBFBFB"/>
<stop offset="1" stop-color="white"/>
</linearGradient>
<linearGradient id="paint61_linear_46_1343" x1="-148" y1="466.173" x2="119.103" y2="466.173" gradientUnits="userSpaceOnUse">
<stop/>
<stop offset="0.1172" stop-color="#383838"/>
<stop offset="0.2429" stop-color="#6C6C6C"/>
<stop offset="0.3708" stop-color="#999999"/>
<stop offset="0.4982" stop-color="#BEBEBE"/>
<stop offset="0.6251" stop-color="#DADADA"/>
<stop offset="0.7513" stop-color="#EFEFEF"/>
<stop offset="0.8766" stop-color="#FBFBFB"/>
<stop offset="1" stop-color="white"/>
</linearGradient>
<clipPath id="clip0_46_1343">
<rect width="696.26" height="564.12" fill="white" transform="translate(-148)"/>
</clipPath>
</defs>
</svg>
